<svg width="137" height="26" viewBox="0 0 137 26" fill="none" xmlns="http://www.w3.org/2000/svg">
<path d="M0.0996094 6.20005H3.29961V8.70005C3.69961 7.80005 4.29961 7.10005 5.09961 6.60005C5.89961 6.10005 6.79961 5.90005 7.79961 5.90005C8.89961 5.90005 9.89961 6.20005 10.7996 6.80005C11.6996 7.40005 12.2996 8.30005 12.7996 9.40005C13.2996 10.5 13.4996 11.8 13.4996 13.3C13.4996 14.8 13.2996 16.1 12.7996 17.3C12.2996 18.4 11.5996 19.3 10.6996 19.9C9.79961 20.5 8.79961 20.8 7.69961 20.8C6.69961 20.8 5.89961 20.6 5.19961 20.2001C4.49961 19.8001 3.89961 19.2 3.49961 18.4V26H0.0996094V6.20005ZM6.69961 18.3C7.69961 18.3 8.49961 17.9 9.09961 17C9.69961 16.1 9.99961 14.9 9.99961 13.4C9.99961 11.9 9.69961 10.7 9.09961 9.80005C8.49961 9.00005 7.69961 8.50005 6.69961 8.50005C5.69961 8.50005 4.89961 8.90005 4.29961 9.70005C3.69961 10.5 3.39961 11.6 3.39961 13V13.7C3.39961 15.1 3.69961 16.2 4.29961 17C4.89961 17.9 5.69961 18.3 6.69961 18.3ZM19.6996 20.9C18.2996 20.9 17.0996 20.5 16.1996 19.7001C15.2996 18.9001 14.8996 17.9 14.8996 16.6C14.8996 15.9001 14.9996 15.3 15.2996 14.7C15.5996 14.1 15.9996 13.7 16.5996 13.3C17.0996 13 17.6996 12.7 18.3996 12.5C19.0996 12.3 19.9996 12.1 21.1996 12L24.1996 11.6V11.2C24.1996 10.1 23.9996 9.40005 23.5996 8.90005C23.1996 8.40005 22.4996 8.20005 21.5996 8.20005C20.7996 8.20005 20.0996 8.40005 19.5996 8.80005C19.0996 9.20005 18.8996 9.90005 18.7996 10.7H15.2996C15.3996 9.20005 15.9996 8.00005 17.0996 7.10005C18.1996 6.20005 19.6996 5.80005 21.4996 5.80005C23.5996 5.80005 25.0996 6.30005 26.0996 7.20005C27.0996 8.10005 27.5996 9.70005 27.5996 11.7V16C27.5996 17.9 27.6996 19.4 27.9996 20.4H24.5996C24.4996 19.6 24.3996 18.8 24.3996 17.9C24.0996 18.8 23.4996 19.5 22.5996 20C21.8996 20.7001 20.8996 20.9 19.6996 20.9ZM20.7996 18.5C21.8996 18.5 22.6996 18.2001 23.2996 17.5C23.8996 16.8 24.2996 15.9 24.2996 14.8V13.9L21.0996 14.4C20.1996 14.6 19.4996 14.8 18.9996 15.2C18.4996 15.6 18.3996 16.0001 18.3996 16.7001C18.3996 17.4001 18.5996 17.8001 18.9996 18.1C19.4996 18.3001 20.0996 18.5 20.7996 18.5ZM34.3996 9.70005C34.7996 8.50005 35.2996 7.60005 36.0996 6.90005C36.8996 6.20005 37.7996 5.90005 38.8996 5.90005C39.0996 5.90005 39.1996 5.90005 39.2996 5.90005V9.20005H38.7996C37.4996 9.20005 36.5996 9.50005 35.8996 10.2C35.3996 10.7 35.0996 11.3 34.8996 12C34.6996 12.7 34.5996 13.5 34.5996 14.5V20.5H31.1996V6.20005H34.3996V9.70005ZM44.6996 20.9C43.2996 20.9 42.0996 20.5 41.1996 19.7001C40.2996 18.9001 39.8996 17.9 39.8996 16.6C39.8996 15.9001 39.9996 15.3 40.2996 14.7C40.5996 14.1 40.9996 13.7 41.5996 13.3C42.0996 13 42.6996 12.7 43.3996 12.5C44.0996 12.3 44.9996 12.1 46.1996 12L49.1996 11.6V11.2C49.1996 10.1 48.9996 9.40005 48.5996 8.90005C48.1996 8.40005 47.4996 8.20005 46.5996 8.20005C45.7996 8.20005 45.0996 8.40005 44.5996 8.80005C44.0996 9.20005 43.8996 9.90005 43.7996 10.7H40.2996C40.3996 9.20005 40.9996 8.00005 42.0996 7.10005C43.1996 6.20005 44.6996 5.80005 46.4996 5.80005C48.5996 5.80005 50.0996 6.30005 51.0996 7.20005C52.0996 8.10005 52.5996 9.70005 52.5996 11.7V16C52.5996 17.9 52.6996 19.4 52.9996 20.4H49.5996C49.4996 19.6 49.3996 18.8 49.3996 17.9C49.0996 18.8 48.4996 19.5 47.5996 20C46.6996 20.5 45.8996 20.9 44.6996 20.9ZM45.7996 18.5C46.8996 18.5 47.6996 18.2001 48.2996 17.5C48.8996 16.8 49.2996 15.9 49.2996 14.8V13.9L46.0996 14.4C45.1996 14.6 44.4996 14.8 43.9996 15.2C43.5996 15.6 43.3996 16.0001 43.3996 16.7001C43.3996 17.4001 43.5996 17.8001 43.9996 18.1C44.4996 18.3001 45.0996 18.5 45.7996 18.5ZM53.6996 6.20005H57.2996L60.0996 15.3C60.2996 15.8 60.3996 16.5 60.5996 17.4H60.6996C60.7996 16.7 60.9996 15.9 61.1996 15.3L63.8996 6.20005H67.4996L62.4996 20.5H58.7996L53.6996 6.20005ZM69.1996 20.6V6.20005H72.5996V20.5H69.1996V20.6ZM68.9996 3.90005V0.300049H72.6996V3.90005H68.9996ZM81.4996 20.9C79.8996 20.9 78.4996 20.5 77.3996 19.8C76.2996 19.1 75.4996 18.1 74.9996 16.7001L77.4996 15.6C77.7996 16.5 78.3996 17.2001 79.0996 17.7001C79.7996 18.2001 80.5996 18.4 81.5996 18.4C82.3996 18.4 83.0996 18.2 83.4996 17.9C83.8996 17.6 84.1996 17.2001 84.1996 16.6C84.1996 16 83.9996 15.6 83.6996 15.3C83.3996 15 82.7996 14.8 81.9996 14.7L79.8996 14.4C78.4996 14.2 77.3996 13.7 76.6996 13C75.9996 12.3 75.5996 11.3 75.5996 10.1C75.5996 8.80005 76.0996 7.70005 77.0996 6.90005C78.0996 6.10005 79.4996 5.70005 81.2996 5.70005C82.7996 5.70005 84.0996 6.00005 85.1996 6.70005C86.2996 7.40005 86.9996 8.20005 87.2996 9.40005L84.9996 10.7C84.5996 9.90005 84.0996 9.30005 83.4996 8.90005C82.8996 8.50005 82.0996 8.30005 81.1996 8.30005C80.3996 8.30005 79.7996 8.40005 79.2996 8.70005C78.8996 9.00005 78.6996 9.40005 78.6996 10C78.6996 10.5 78.8996 10.9 79.1996 11.2C79.4996 11.5 80.0996 11.7 80.7996 11.7L83.1996 12C84.5996 12.2 85.5996 12.6 86.2996 13.3C86.8996 14 87.2996 15 87.2996 16.2C87.2996 17.6 86.7996 18.7001 85.7996 19.5C84.7996 20.5 83.2996 20.9 81.4996 20.9ZM89.8996 20.6V6.20005H93.2996V20.5H89.8996V20.6ZM89.7996 3.90005V0.300049H93.4996V3.90005H89.7996ZM102.9 20.9C101.5 20.9 100.3 20.6 99.2996 20C98.2996 19.4 97.3996 18.5 96.8996 17.4C96.2996 16.3 95.9996 14.9 95.9996 13.3C95.9996 11.7 96.2996 10.4 96.8996 9.30005C97.4996 8.20005 98.2996 7.30005 99.2996 6.70005C100.3 6.10005 101.5 5.80005 102.9 5.80005C104.3 5.80005 105.5 6.10005 106.5 6.70005C107.5 7.30005 108.4 8.10005 108.9 9.30005C109.5 10.4 109.8 11.8 109.8 13.3C109.8 14.8 109.5 16.2 108.9 17.4C108.3 18.5 107.5 19.4 106.5 20C105.5 20.6 104.3 20.9 102.9 20.9ZM102.9 18.3C104 18.3 104.8 17.9 105.4 17.1C106 16.3001 106.3 15 106.3 13.4C106.3 11.8 106 10.6 105.4 9.80005C104.8 9.00005 104 8.60005 102.8 8.60005C101.7 8.60005 100.8 9.00005 100.2 9.80005C99.5996 10.6 99.2996 11.8 99.2996 13.4C99.2996 15 99.5996 16.2001 100.2 17.1C101 17.9 101.8 18.3 102.9 18.3ZM112.5 6.20005H115.7V9.00005C116.7 6.90005 118.2 5.90005 120.4 5.90005C121.9 5.90005 123.1 6.40005 123.9 7.40005C124.7 8.40005 125.1 9.80005 125.1 11.7V20.6H121.7V12C121.7 9.70005 120.8 8.60005 119.1 8.60005C118.1 8.60005 117.3 9.00005 116.8 9.70005C116.2 10.5 116 11.5 116 12.9V20.5H112.6V6.20005H112.5Z" fill="#002E64"/>
<path d="M132.272 7.712C134.32 7.712 135.984 6.064 135.984 4C135.984 1.936 134.32 0.272003 132.272 0.272003C130.192 0.272003 128.544 1.936 128.544 4C128.544 6.064 130.192 7.712 132.272 7.712ZM132.272 7.024C130.48 7.024 129.264 5.848 129.264 4C129.264 2.16 130.48 0.952003 132.272 0.952003C134.032 0.952003 135.256 2.16 135.256 4C135.256 5.848 134.032 7.024 132.272 7.024ZM130.856 5.864H131.488V4.152H132.368L133 5.864H133.68L132.968 4.096C133.352 3.952 133.752 3.688 133.752 3.104C133.752 2.496 133.296 2.176 132.504 2.176H130.856V5.864ZM131.488 3.632V2.68H132.368C132.936 2.68 133.096 2.904 133.096 3.16C133.096 3.52 132.784 3.632 132.416 3.632H131.488Z" fill="#002E64"/>
</svg>
