<svg xmlns="http://www.w3.org/2000/svg" width="300.525" height="57.038" viewBox="0 0 300.525 57.038">
  <title>Planetwork-White</title>
  <g>
    <path d="M39.5.019a.779.779,0,0,1,.9.7v43.7a.779.779,0,0,1-.7.9H35.5a.779.779,0,0,1-.9-.7V.919a.779.779,0,0,1,.7-.9h4.2Z" fill="#fff"/>
    <path d="M72.6,21.319v21a1.556,1.556,0,0,1-1.1,1.7c-2.1.8-7.3,1.3-13.3,1.3-7.9,0-11.6-1.6-11.6-9.6,0-7.2,3.8-9.2,10.6-9.2l9.6-.1v-4c0-3.7-2.2-5.4-7.8-5.4H50c-.7,0-.9-.2-.9-.9v-2.5c0-.7.2-.8.8-1a54.584,54.584,0,0,1,9-.7C68.4,11.919,72.6,14.819,72.6,21.319Zm-15.3,9.7c-3.3,0-5,1.1-5,4.5,0,4,2,4.8,6.9,4.8a40.11,40.11,0,0,0,7.7-.7v-8.6Z" fill="#fff"/>
    <path d="M107.8,26.219v18.1c0,.6-.4.9-1,.9H103a.779.779,0,0,1-.9-.7v-17.8c0-9.2-1.8-9.5-7.5-9.5H86.4v27.1a.779.779,0,0,1-.7.9H81.5a.779.779,0,0,1-.9-.7v-30.3c0-.8.3-.8.9-1a74.4,74.4,0,0,1,12.5-1C104.6,12.219,107.8,13.619,107.8,26.219Z" fill="#fff"/>
    <path d="M141.8,27.719v1.7c0,1.2-.3,1.7-2.2,1.7h-19c.2,7.3,1.6,9.1,8,9.1h9.8a.779.779,0,0,1,.9.7v2.8a.9.9,0,0,1-.8,1h-.1a67.01,67.01,0,0,1-10,.5c-11.3,0-13.6-3.3-13.6-16.6s2.4-16.7,13.6-16.7C139.1,11.919,141.7,15.119,141.8,27.719Zm-21.3-1.3H136c-.1-7.6-1.4-9.5-7.6-9.5C122,16.919,120.6,18.819,120.5,26.419Z" fill="#fff"/>
    <path d="M154.7,3.219c.7-.2,1,.1,1,.8v8.3H162c.6,0,1,.3,1,.9v2.8c0,.6-.3.9-1,.9h-6.3v20.1c0,2.6.7,3.2,3.9,3.2h2.9c.7,0,1,.2,1,.8v2.9c0,.5-.3.8-.9,1a18.61,18.61,0,0,1-3.4.4c-4.3,0-9.2-.1-9.2-6.8v-21.6h-3.4a.779.779,0,0,1-.9-.7v-3a.779.779,0,0,1,.7-.9H150v-7.2a.824.824,0,0,1,.7-1h.1Z" fill="#fff"/>
    <path d="M212.1,12.219c.7,0,.8.2.7,1l-5.3,25.3c-1.3,5.9-2.1,6.8-7,6.8-5.3,0-5.6-.8-6.9-6.8l-3.9-16.8-3.9,16.8c-1.4,6-1.7,6.8-7,6.8-4.8,0-5.7-.8-7-6.8l-5.3-25.3c-.1-.8.1-1,.7-1h4.4c.4,0,.5.2.7,1l4.9,24.6c.5,2.1.8,2.3,1.6,2.3,1,0,1.1-.2,1.6-2.3l5.9-23.7c.2-.7.4-1,.8-1h5c.5,0,.7.2.8,1l5.8,23.6c.5,2.1.6,2.3,1.6,2.3.8,0,1.1-.2,1.6-2.3l4.9-24.6c.2-.8.3-1,.8-1Z" fill="#fff"/>
    <path d="M245.3,28.619c0,13.3-2.3,16.6-13.9,16.6s-13.9-3.3-13.9-16.6,2.4-16.7,13.9-16.7S245.3,15.319,245.3,28.619Zm-22.1,0c0,9.3.9,11.6,8.2,11.6s8.1-2.3,8.1-11.6-.9-11.7-8.1-11.7S223.2,19.319,223.2,28.619Z" fill="#fff"/>
    <path d="M268.5,12.919c.6.2.9.4.9,1v2.6a.779.779,0,0,1-.7.9h-5.5c-4.1,0-5.2.7-5.2,3.3v23.8a.779.779,0,0,1-.7.9h-4.1a.779.779,0,0,1-.9-.7v-25.5c0-6.8,6-7,9.5-7A29.89,29.89,0,0,1,268.5,12.919Z" fill="#fff"/>
    <path d="M279.2.019a.817.817,0,0,1,.9.8v23.4l9.8-11a1.612,1.612,0,0,1,1.3-.6h5c1.1,0,1.1.5.5,1.1l-10.6,11.7,14.1,18.3c.5.7.6,1.6-1,1.6H295a1.457,1.457,0,0,1-1.3-.7l-13.6-17.9v17.5c0,.7-.3,1-.9,1h-3.9c-.6,0-.9-.3-.9-1V.919a.748.748,0,0,1,.7-.9h4.1Z" fill="#fff"/>
    <path d="M27.3,28.819c0,13.3-2.4,16.7-13.7,16.7a69.667,69.667,0,0,1-7.9-.4v11a.779.779,0,0,1-.7.9H.9a.779.779,0,0,1-.9-.7v-42.1c0-.7.4-.9,1-1a73.224,73.224,0,0,1,12.4-1C24.9,12.219,27.3,15.619,27.3,28.819ZM5.7,17.219v22.8a62.973,62.973,0,0,0,7.5.5c7.4,0,8.3-2.3,8.3-11.6s-.8-11.7-8.2-11.7Z" fill="#fff"/>
  </g>
</svg>
